<svg xmlns="http://www.w3.org/2000/svg" width="24" height="24" fill="none"><defs><clipPath id="a"><rect width="24" height="24" rx="0"/></clipPath></defs><g clip-path="url(#a)"><path fill="#666" fill-rule="evenodd" d="m4.352 4.352-.053.054.107-.107zM12 10.61 5.88 4.49c-.203-.204-.275-.276-.346-.325-.289-.2-.653-.22-.922-.048a2 2 0 0 0-.26.235c-.142.143-.198.201-.235.26-.172.27-.153.633.048.922.05.07.121.143.324.346L10.61 12l-6.12 6.12c-.203.203-.275.275-.324.345-.2.29-.22.654-.048.923a2 2 0 0 0 .182.206l.1.1-.047-.047c.143.143.201.199.26.236.27.172.633.153.923-.048.07-.05.142-.121.345-.324L12 13.39l6.12 6.12c.203.203.275.275.345.324.29.2.654.22.923.048a2 2 0 0 0 .206-.182l.107-.107-.054.053c.143-.142.199-.2.236-.259.172-.27.153-.633-.048-.922-.05-.07-.121-.143-.325-.346L13.39 12l6.12-6.12c.204-.203.276-.275.325-.345.2-.29.22-.654.048-.923a2 2 0 0 0-.235-.26l.05.05-.1-.1.05.05a2 2 0 0 0-.26-.235c-.27-.172-.634-.153-.923.048-.07.05-.142.121-.345.324z"/></g></svg>